HIERARCHY
ROOT Hips
{
	OFFSET 0.000000 0.000000 0.000000
	CHANNELS 6 Xposition Yposition Zposition Xrotation Yrotation Zrotation
	JOINT LeftUpLeg_virtual
	{
		OFFSET 0.000000 0.000000 0.000000
		CHANNELS 3 Xrotation Yrotation Zrotation
		JOINT LeftUpLeg
		{
			OFFSET 15.427100 -6.655098 0.678600
			CHANNELS 3 Xrotation Yrotation Zrotation
			JOINT LeftLeg
			{
				OFFSET 4.081073 -39.591068 13.024000
				CHANNELS 3 Xrotation Yrotation Zrotation
				JOINT LeftFoot
				{
					OFFSET -4.081074 -37.707932 -15.979700
					CHANNELS 3 Xrotation Yrotation Zrotation
					JOINT LeftToeBase
					{
						OFFSET 5.346399 -15.068900 20.645000
						CHANNELS 3 Xrotation Yrotation Zrotation
						JOINT LeftToe_End
						{
							OFFSET 2.754700 0.931300 11.300900
							CHANNELS 3 Xrotation Yrotation Zrotation
							End Site
							{
								OFFSET 0 0 0
							}
						}
					}
				}
			}
		}
	}
	JOINT RightUpLeg_virtual
	{
		OFFSET 0.000000 0.000000 0.000000
		CHANNELS 3 Xrotation Yrotation Zrotation
		JOINT RightUpLeg
		{
			OFFSET -15.569500 -6.655098 0.678600
			CHANNELS 3 Xrotation Yrotation Zrotation
			JOINT RightLeg
			{
				OFFSET -4.081825 -39.591045 13.023800
				CHANNELS 3 Xrotation Yrotation Zrotation
				JOINT RightFoot
				{
					OFFSET 4.081824 -37.707954 -15.979600
					CHANNELS 3 Xrotation Yrotation Zrotation
					JOINT RightToeBase
					{
						OFFSET -5.346400 -15.068900 20.645000
						CHANNELS 3 Xrotation Yrotation Zrotation
						JOINT RightToe_End
						{
							OFFSET -2.754700 0.931300 11.300900
							CHANNELS 3 Xrotation Yrotation Zrotation
							End Site
							{
								OFFSET 0 0 0
							}
						}
					}
				}
			}
		}
	}
	JOINT Spine_virtual
	{
		OFFSET 0.000000 0.000000 0.000000
		CHANNELS 3 Xrotation Yrotation Zrotation
		JOINT Spine
		{
			OFFSET -0.279200 12.230698 -2.892100
			CHANNELS 3 Xrotation Yrotation Zrotation
			JOINT Spine1
			{
				OFFSET -0.232667 10.192268 -1.242267
				CHANNELS 3 Xrotation Yrotation Zrotation
				JOINT Spine1_split
				{
					OFFSET -0.232667 10.192268 -1.242267
					CHANNELS 3 Xrotation Yrotation Zrotation
					JOINT Spine2
					{
						OFFSET -0.232667 10.192268 -1.242267
						CHANNELS 3 Xrotation Yrotation Zrotation
						JOINT Neck_virtual
						{
							OFFSET 0.000000 0.000000 0.000000
							CHANNELS 3 Xrotation Yrotation Zrotation
							JOINT Neck
							{
								OFFSET -0.418800 17.814194 8.416900
								CHANNELS 3 Xrotation Yrotation Zrotation
								JOINT Head
								{
									OFFSET 0.000000 7.031097 3.806800
									CHANNELS 3 Xrotation Yrotation Zrotation
									JOINT HeadTop_End
									{
										OFFSET 0.000000 24.646606 12.978600
										CHANNELS 3 Xrotation Yrotation Zrotation
										End Site
										{
											OFFSET 0 0 0
										}
									}
								}
							}
						}
						JOINT LeftShoulder_virtual
						{
							OFFSET 0.000000 0.000000 0.000000
							CHANNELS 3 Xrotation Yrotation Zrotation
							JOINT LeftShoulder
							{
								OFFSET 8.476499 7.247704 -3.868750
								CHANNELS 3 Xrotation Yrotation Zrotation
								JOINT LeftShoulder_split
								{
									OFFSET 8.476499 7.247704 -3.868750
									CHANNELS 3 Xrotation Yrotation Zrotation
									JOINT LeftArm
									{
										OFFSET 9.308998 -2.777710 0.208600
										CHANNELS 3 Xrotation Yrotation Zrotation
										JOINT LeftForeArm
										{
											OFFSET 29.972298 0.000000 0.000000
											CHANNELS 3 Xrotation Yrotation Zrotation
											JOINT LeftHand
											{
												OFFSET 26.026505 0.000000 0.000000
												CHANNELS 3 Xrotation Yrotation Zrotation
												End Site
												{
													OFFSET 0 0 0
												}
											}
										}
									}
								}
							}
						}
						JOINT RightShoulder_virtual
						{
							OFFSET 0.000000 0.000000 0.000000
							CHANNELS 3 Xrotation Yrotation Zrotation
							JOINT RightShoulder
							{
								OFFSET -7.570500 7.247704 -3.868750
								CHANNELS 3 Xrotation Yrotation Zrotation
								JOINT RightShoulder_split
								{
									OFFSET -7.570500 7.247704 -3.868750
									CHANNELS 3 Xrotation Yrotation Zrotation
									JOINT RightArm
									{
										OFFSET -9.308998 -2.777710 0.208500
										CHANNELS 3 Xrotation Yrotation Zrotation
										JOINT RightForeArm
										{
											OFFSET -29.972300 0.000000 0.000000
											CHANNELS 3 Xrotation Yrotation Zrotation
											JOINT RightHand
											{
												OFFSET -26.026505 0.000000 0.000000
												CHANNELS 3 Xrotation Yrotation Zrotation
												End Site
												{
													OFFSET 0 0 0
												}
											}
										}
									}
								}
							}
						}
					}
				}
			}
		}
	}
}
MOTION
Frames: 4
Frame Time: 0.03333333
45.728027 86.936020 18.787426 0.000000 0.000000 0.000000 6.760953 -52.799804 3.502162 -9.927122 10.366675 -4.419622 39.054352 5.706942 8.176536 -18.321685 14.670659 4.055731 -18.678168 0.664070 0.412030 0.000000 0.000000 0.000000 8.572408 -54.844985 4.865411 -32.756802 24.924458 -18.792588 41.845362 7.853611 -0.725912 28.344150 -12.893943 51.831157 1.020975 5.988521 -5.941832 0.000000 0.000000 0.000000 10.316623 -42.180929 3.547106 6.252497 11.421179 6.350682 -1.391319 9.445955 -3.590274 0.257182 -1.002140 0.167904 0.000000 0.000000 0.000000 5.733898 10.681222 -2.335281 -15.756533 8.705897 13.332740 10.511805 -25.488586 11.783195 0.000000 0.000000 0.000000 1.822927 8.412695 -2.989546 -6.893214 -24.169424 -25.081631 -0.504097 4.329224 -7.607337 -25.935516 37.167922 -54.699850 10.344828 -44.915204 1.418251 0.000000 0.000000 0.000000 -1.104533 7.386487 -1.208339 11.602717 -15.417917 0.753679 -6.494952 -0.523990 -2.351050 21.450487 -36.197233 53.776169 173.701136 54.916640 -159.736719 0.000000 0.000000 0.000000 
45.711533 86.715546 22.363710 0.000000 0.000000 0.000000 5.876810 -50.340342 1.643487 -9.270990 11.218456 -5.153503 40.301613 4.940305 9.285796 -18.842427 10.150265 4.434326 -22.838725 1.174835 -0.538040 0.000000 0.000000 0.000000 8.332680 -52.611216 3.450140 -38.983544 28.058784 -13.286560 48.017999 9.064793 -0.201608 28.368892 -10.960483 47.874937 3.268954 4.630704 -4.196758 0.000000 0.000000 0.000000 9.818715 -39.948786 2.270851 6.829021 10.362106 7.080381 -1.271223 8.781006 -3.704540 0.227746 -1.054770 0.161607 0.000000 0.000000 0.000000 5.742718 10.086782 -2.246821 -15.695339 10.401920 13.311432 10.866915 -24.999957 11.880042 0.000000 0.000000 0.000000 1.964678 7.831361 -2.898897 -6.850837 -25.907469 -24.936928 0.306255 3.988505 -7.984609 -27.830012 35.524094 -53.606026 13.994418 -47.068596 5.140163 0.000000 0.000000 0.000000 -1.215692 6.623841 -1.267770 11.801991 -14.635878 1.299199 -5.274429 -0.243428 -2.546968 23.515131 -39.909331 56.610940 173.136498 52.982477 -159.018484 0.000000 0.000000 0.000000 
45.800289 86.851913 25.833481 0.000000 0.000000 0.000000 5.306840 -47.238575 -0.158751 -8.768911 11.795068 -5.633558 40.376267 3.943778 10.274193 -18.950597 4.772342 4.374880 -26.337665 1.727182 -1.545886 0.000000 0.000000 0.000000 7.836282 -49.542890 1.611986 -43.763594 28.843042 -7.368530 51.374965 9.004879 0.667304 26.040417 -10.598909 42.656358 5.681302 3.418350 -2.978946 0.000000 0.000000 0.000000 9.780185 -36.927418 0.923945 7.476451 9.140163 8.017992 -1.052302 8.221592 -3.828493 0.195401 -1.066563 0.152737 0.000000 0.000000 0.000000 5.743523 9.560356 -2.140634 -15.561792 12.006428 13.160114 10.920290 -25.154485 12.003521 0.000000 0.000000 0.000000 2.111635 7.363581 -2.851367 -6.763082 -27.734057 -24.709927 0.990661 3.565731 -8.471501 -29.481757 33.758569 -52.599567 17.368795 -49.639797 8.737298 0.000000 0.000000 0.000000 -1.276267 5.956391 -1.377934 11.916315 -14.044303 1.795783 -4.126209 0.171420 -2.391095 23.979278 -42.903290 58.529428 172.150506 51.874119 -157.932825 0.000000 0.000000 0.000000 
46.007500 87.403511 29.559643 0.000000 0.000000 0.000000 5.225936 -43.434061 -1.612505 -7.958501 11.984906 -5.975488 39.294184 2.986741 10.915285 -18.869306 -0.656381 4.232983 -28.279642 2.288686 -2.557525 0.000000 0.000000 0.000000 6.779250 -46.325823 -0.427006 -47.459279 27.988836 -2.563960 51.902474 7.700136 1.699068 24.385570 -10.216811 38.428994 8.106721 2.332070 -2.222308 0.000000 0.000000 0.000000 9.944652 -33.180113 -0.467034 8.107556 7.714991 9.024788 -0.684849 7.802788 -3.970308 0.167433 -1.031017 0.120930 0.000000 0.000000 0.000000 5.782597 9.151163 -2.039922 -15.310443 13.433643 12.977412 10.915791 -25.969966 12.252288 0.000000 0.000000 0.000000 2.298115 7.042037 -2.884222 -6.618105 -29.519289 -24.387670 1.515105 2.918943 -9.061195 -30.690670 31.796194 -51.787051 20.578475 -52.969002 12.330295 0.000000 0.000000 0.000000 -1.208931 5.445846 -1.549207 11.964996 -13.738429 2.134665 -2.889228 0.818615 -1.724162 22.736945 -44.786240 59.155196 170.916345 51.117187 -156.636783 0.000000 0.000000 0.000000 
